<svg xmlns="http://www.w3.org/2000/svg" xmlns:xlink="http://www.w3.org/1999/xlink" width="810" zoomAndPan="magnify" viewBox="0 0 607.5 607.499986" height="810" preserveAspectRatio="xMidYMid meet" version="1.0"><defs><clipPath id="c542c021c7"><path d="M 405 230 L 545.191406 230 L 545.191406 370 L 405 370 Z M 405 230 " clip-rule="nonzero"/></clipPath></defs><path fill="#ffffff" d="M 0 0 L 607 0 L 607 607 L 0 607 Z M 0 0 " fill-opacity="1" fill-rule="nonzero"/><path fill="#f0f0ec" d="M 0 0 L 607 0 L 607 607 L 0 607 Z M 0 0 " fill-opacity="1" fill-rule="nonzero"/><g clip-path="url(#c542c021c7)"><path fill="#ff8a3e" d="M 545.050781 250.773438 L 545.050781 358.09375 C 544.230469 363.09375 542.304688 367.011719 539.375 369.933594 L 405.359375 237.167969 C 408.769531 233.296875 413.667969 231.1875 420.082031 230.882812 L 526.328125 230.867188 C 537.660156 232.304688 544.371094 238.464844 545.050781 250.773438 Z M 545.050781 250.773438 " fill-opacity="1" fill-rule="nonzero"/></g><path fill="#080808" d="M 539.375 369.933594 C 536.070312 373.234375 531.480469 375.273438 525.738281 376.179688 L 417.683594 376.179688 C 406.519531 374.441406 401.425781 367.585938 400.175781 357.492188 L 400.175781 248.957031 C 401.0625 244.03125 402.789062 240.09375 405.359375 237.167969 Z M 539.375 369.933594 " fill-opacity="1" fill-rule="nonzero"/><path fill="#e67c38" d="M 175.613281 426.8125 L 175.921875 427.136719 L 74.835938 528.703125 L 74.757812 528.785156 C 68.351562 522.613281 64.402344 514.1875 62.097656 504.269531 L 62.097656 228.914062 C 65.492188 213.640625 71.835938 202.320312 80.644531 194.273438 C 89.125 186.867188 99.386719 182.253906 111.671875 180.828125 L 175.617188 180.828125 L 175.617188 426.8125 Z M 175.613281 426.8125 " fill-opacity="1" fill-rule="nonzero"/><path fill="#080808" d="M 431.546875 480.605469 L 303.875 606.78125 L 303.800781 539.300781 L 303.671875 427.429688 L 303.585938 354.460938 Z M 431.546875 480.605469 " fill-opacity="1" fill-rule="nonzero"/><path fill="#080808" d="M 431.253906 126.238281 L 304.179688 251.363281 L 303.878906 180.1875 L 303.875 0.21875 Z M 431.253906 126.238281 " fill-opacity="1" fill-rule="nonzero"/><path fill="#cc6e32" d="M 303.671875 427.429688 L 303.800781 539.300781 L 97.425781 539.28125 C 87.671875 537.785156 80.296875 534.128906 74.757812 528.785156 L 74.835938 528.703125 L 175.921875 427.136719 L 176.207031 427.441406 L 303.390625 427.429688 Z M 303.671875 427.429688 " fill-opacity="1" fill-rule="nonzero"/><path fill="#ff8a3e" d="M 303.574219 68.058594 L 303.574219 179.902344 C 303.574219 179.902344 176.179688 180.214844 176.179688 180.214844 L 175.617188 180.828125 L 111.671875 180.828125 C 99.386719 182.253906 89.125 186.867188 80.644531 194.273438 C 71.835938 202.320312 65.492188 213.640625 62.101562 228.914062 L 62.101562 102.679688 C 65.785156 81.773438 78.8125 71.550781 97.707031 68.046875 Z M 303.574219 68.058594 " fill-opacity="1" fill-rule="nonzero"/></svg>