<?xml version="1.0" encoding="UTF-8"?>
<svg id="Layer_1" data-name="Layer 1" xmlns="http://www.w3.org/2000/svg" viewBox="0 0 859.48 1079.15">
  <defs>
    <style>
      .cls-1 {
        fill: #cc6e32;
      }

      .cls-2 {
        fill: #080808;
      }

      .cls-3 {
        fill: #e67c38;
      }

      .cls-4 {
        fill: #ff8a3e;
      }
    </style>
  </defs>
  <g>
    <path class="cls-4" d="M859.23,445.81v190.85c-1.46,8.89-4.88,15.86-10.09,21.05l-238.3-236.09c6.06-6.89,14.77-10.64,26.18-11.18l188.92-.03c20.15,2.56,32.08,13.51,33.29,35.4Z"/>
    <path class="cls-2" d="M849.14,657.71c-5.88,5.87-14.04,9.5-24.25,11.11h-192.14c-19.85-3.09-28.91-15.28-31.13-33.23v-193.01c1.58-8.76,4.65-15.76,9.22-20.96l238.3,236.09Z"/>
  </g>
  <g>
    <path class="cls-3" d="M202.31,758.86l.55.58L23.11,940.05l-.14.15c-11.39-10.98-18.41-25.96-22.51-43.6v-489.66c6.04-27.16,17.32-47.29,32.98-61.6,15.08-13.17,33.33-21.38,55.17-23.91h113.71v437.43Z"/>
    <polygon class="cls-2" points="657.4 854.52 430.38 1078.9 430.25 958.9 430.02 759.96 429.87 630.2 657.4 854.52"/>
    <polygon class="cls-2" points="656.88 224.35 430.92 446.86 430.39 320.29 430.38 .25 656.88 224.35"/>
    <path class="cls-1" d="M430.02,759.96l.23,198.94-366.97-.04c-17.34-2.66-30.46-9.16-40.31-18.66l.14-.15,179.75-180.61.51.54,226.15-.02h.5Z"/>
    <path class="cls-4" d="M429.85,120.89v198.89s-226.53.56-226.53.56l-1,1.09h-113.71c-21.84,2.53-40.09,10.74-55.17,23.91-15.66,14.31-26.94,34.44-32.97,61.6v-224.48c6.55-37.18,29.71-55.36,63.31-61.59l366.07.02Z"/>
  </g>
</svg>