<?xml version="1.0" encoding="UTF-8"?>
<svg id="Layer_1" xmlns="http://www.w3.org/2000/svg" version="1.1" viewBox="0 0 1080 1080">
  <!-- Generator: Adobe Illustrator 30.2.1, SVG Export Plug-In . SVG Version: 2.1.1 Build 1)  -->
  <defs>
    <style>
      .st0 {
        fill: #cc6e32;
      }

      .st1 {
        fill: #080808;
      }

      .st2 {
        fill: #e67c38;
      }

      .st3 {
        fill: #ff8a3e;
      }
    </style>
  </defs>
  <g>
    <path class="st3" d="M969.38,446.74v190.85c-1.46,8.89-4.88,15.86-10.09,21.05l-238.3-236.09c6.06-6.89,14.77-10.64,26.18-11.18l188.92-.03c20.15,2.56,32.08,13.51,33.29,35.4Z"/>
    <path class="st1" d="M959.29,658.64c-5.88,5.87-14.04,9.5-24.25,11.11h-192.14c-19.85-3.09-28.91-15.28-31.13-33.23v-193.01c1.58-8.76,4.65-15.76,9.22-20.96l238.3,236.09Z"/>
  </g>
  <g>
    <path class="st2" d="M312.46,759.79l.55.58-179.75,180.61-.14.15c-11.39-10.98-18.41-25.96-22.51-43.6v-489.66c6.04-27.16,17.32-47.29,32.98-61.6,15.08-13.17,33.33-21.38,55.17-23.91h113.71v437.43Z"/>
    <polygon class="st1" points="767.55 855.45 540.53 1079.83 540.4 959.83 540.17 760.89 540.02 631.13 767.55 855.45"/>
    <polygon class="st1" points="767.03 225.28 541.07 447.79 540.54 321.22 540.53 1.18 767.03 225.28"/>
    <path class="st0" d="M540.17,760.89l.23,198.94-366.97-.04c-17.34-2.66-30.46-9.16-40.31-18.66l.14-.15,179.75-180.61.51.54,226.15-.02h.5Z"/>
    <path class="st3" d="M540,121.82v198.89s-226.53.56-226.53.56l-1,1.09h-113.71c-21.84,2.53-40.09,10.74-55.17,23.91-15.66,14.31-26.94,34.44-32.97,61.6v-224.48c6.55-37.18,29.71-55.36,63.31-61.59l366.07.02Z"/>
  </g>
</svg>